# xmcd CD database file
#
# Track frame offsets:
#	150
#	20091
#	40906
#	62296
#	84581
#	108726
#	125032
#	147696
#	169194
#	187279
#	207532
#	227343
#
# Disc length: 3226 seconds
#
# Revision: 0
# Processed by: cddbd v1.5.2PL0 Copyright (c) Steve Scherf et al.
# Submitted via: CDex 1.70beta2
#
DISCID=b50c980c
DTITLE=Various Artist - Hörvergnügen 5
DYEAR=2008
DGENRE=Jazz
TTITLE0=Alien Café - A Letter for You
TTITLE1=Nils Wülker - Consistently Accidental
TTITLE2=Tingvall Trio - Grrr
TTITLE3=Glücklich1 - How Deep Is the Ocean
TTITLE4=Andy Middleton - Cherry Street
TTITLE5=Jacqui Naylor - Easy Ride from Here
TTITLE6=Michael Beck Trio - Another Day
TTITLE7=Johannes Müllers Jazz Mile - Durchblick
TTITLE8=Carsten Daerr Trio - Kuala Lumpur
TTITLE9=Al di Meola - Poemo Valseado
TTITLE10=Lisa Bassenge - I'd Never Have to Go
TTITLE11=Albert Mangelsdorff - Folk Mond
EXTD=YEAR: 2008
EXTT0=
EXTT1=
EXTT2=
EXTT3=
EXTT4=
EXTT5=
EXTT6=
EXTT7=
EXTT8=
EXTT9=
EXTT10=
EXTT11=
PLAYORDER=
